<svg width="496" height="565" viewBox="0 0 496 565" fill="none"
    xmlns="http://www.w3.org/2000/svg">
    <g clip-path="url(#clip0_34_302)">
        <rect width="496" height="565" rx="32" fill="black"/>
        <path d="M496 477.334C416.026 477.334 351.218 412.558 351.218 332.68C351.218 252.803 416.052 188 496 188" stroke="white" stroke-width="11" stroke-miterlimit="10"/>
        <path d="M361.928 529.874C388.424 529.874 409.902 508.415 409.902 481.943C409.902 455.471 388.424 434.011 361.928 434.011C335.433 434.011 313.954 455.471 313.954 481.943C313.954 508.415 335.433 529.874 361.928 529.874Z" fill="#FF4F15"/>
        <mask id="mask0_34_302" style="mask-type:luminance" maskUnits="userSpaceOnUse" x="13" y="231" width="294" height="294">
            <path d="M160.13 524.407C240.969 524.407 306.502 458.932 306.502 378.165C306.502 297.397 240.969 231.922 160.13 231.922C79.2916 231.922 13.7589 297.397 13.7589 378.165C13.7589 458.932 79.2916 524.407 160.13 524.407Z" fill="white"/>
        </mask>
        <g mask="url(#mask0_34_302)">
            <path d="M289.173 231.792C289.173 230.412 290.293 229.293 291.674 229.293C293.003 229.293 294.124 230.412 294.124 231.792C294.124 233.172 293.003 234.291 291.674 234.291C290.293 234.291 289.173 233.172 289.173 231.792ZM267.231 231.792C267.231 230.412 268.352 229.293 269.733 229.293C271.114 229.293 272.234 230.412 272.234 231.792C272.234 233.172 271.114 234.291 269.733 234.291C268.352 234.291 267.231 233.172 267.231 231.792ZM245.29 231.792C245.29 230.412 246.41 229.293 247.791 229.293C249.173 229.293 250.293 230.412 250.293 231.792C250.293 233.172 249.173 234.291 247.791 234.291C246.41 234.291 245.29 233.172 245.29 231.792ZM223.401 231.792C223.401 230.412 224.521 229.293 225.85 229.293C227.231 229.293 228.352 230.412 228.352 231.792C228.352 233.172 227.231 234.291 225.85 234.291C224.521 234.291 223.401 233.172 223.401 231.792ZM201.459 231.792C201.459 230.412 202.58 229.293 203.961 229.293C205.342 229.293 206.462 230.412 206.462 231.792C206.462 233.172 205.342 234.291 203.961 234.291C202.58 234.291 201.459 233.172 201.459 231.792ZM179.518 231.792C179.518 230.412 180.638 229.293 182.019 229.293C183.401 229.293 184.521 230.412 184.521 231.792C184.521 233.172 183.401 234.291 182.019 234.291C180.638 234.291 179.518 233.172 179.518 231.792ZM157.629 231.792C157.629 230.412 158.749 229.293 160.13 229.293C161.459 229.293 162.58 230.412 162.58 231.792C162.58 233.172 161.459 234.291 160.13 234.291C158.749 234.291 157.629 233.172 157.629 231.792ZM135.687 231.792C135.687 230.412 136.808 229.293 138.189 229.293C139.57 229.293 140.69 230.412 140.69 231.792C140.69 233.172 139.57 234.291 138.189 234.291C136.808 234.291 135.687 233.172 135.687 231.792ZM113.746 231.792C113.746 230.412 114.866 229.293 116.247 229.293C117.629 229.293 118.749 230.412 118.749 231.792C118.749 233.172 117.629 234.291 116.247 234.291C114.866 234.291 113.746 233.172 113.746 231.792ZM91.8566 231.792C91.8566 230.412 92.9771 229.293 94.3582 229.293C95.6872 229.293 96.8077 230.412 96.8077 231.792C96.8077 233.172 95.6872 234.291 94.3582 234.291C92.9771 234.291 91.8566 233.172 91.8566 231.792ZM69.9152 231.792C69.9152 230.412 71.0357 229.293 72.4168 229.293C73.798 229.293 74.9185 230.412 74.9185 231.792C74.9185 233.172 73.798 234.291 72.4168 234.291C71.0357 234.291 69.9152 233.172 69.9152 231.792ZM47.9738 231.792C47.9738 230.412 49.0944 229.293 50.4755 229.293C51.8566 229.293 52.9771 230.412 52.9771 231.792C52.9771 233.172 51.8566 234.291 50.4755 234.291C49.0944 234.291 47.9738 233.172 47.9738 231.792ZM26.0846 231.792C26.0846 230.412 27.153 229.293 28.5341 229.293C29.9152 229.293 31.0357 230.412 31.0357 231.792C31.0357 233.172 29.9152 234.291 28.5341 234.291C27.153 234.291 26.0846 233.172 26.0846 231.792Z" fill="white"/>
            <path d="M288.912 250.355C288.912 248.845 290.163 247.596 291.674 247.596C293.186 247.596 294.384 248.845 294.384 250.355C294.384 251.865 293.186 253.115 291.674 253.115C290.163 253.115 288.912 251.865 288.912 250.355ZM266.971 250.355C266.971 248.845 268.221 247.596 269.733 247.596C271.244 247.596 272.495 248.845 272.495 250.355C272.495 251.865 271.244 253.115 269.733 253.115C268.221 253.115 266.971 251.865 266.971 250.355ZM245.081 250.355C245.081 248.845 246.28 247.596 247.791 247.596C249.303 247.596 250.554 248.845 250.554 250.355C250.554 251.865 249.303 253.115 247.791 253.115C246.28 253.115 245.081 251.865 245.081 250.355ZM223.14 250.355C223.14 248.845 224.339 247.596 225.902 247.596C227.414 247.596 228.612 248.845 228.612 250.355C228.612 251.865 227.414 253.115 225.902 253.115C224.339 253.115 223.14 251.865 223.14 250.355ZM201.199 250.355C201.199 248.845 202.449 247.596 203.961 247.596C205.472 247.596 206.671 248.845 206.671 250.355C206.671 251.865 205.472 253.115 203.961 253.115C202.449 253.115 201.199 251.865 201.199 250.355ZM179.257 250.355C179.257 248.845 180.508 247.596 182.019 247.596C183.531 247.596 184.782 248.845 184.782 250.355C184.782 251.865 183.531 253.115 182.019 253.115C180.508 253.115 179.257 251.865 179.257 250.355ZM157.368 250.355C157.368 248.845 158.567 247.596 160.078 247.596C161.642 247.596 162.84 248.845 162.84 250.355C162.84 251.865 161.642 253.115 160.078 253.115C158.567 253.115 157.368 251.865 157.368 250.355ZM135.427 250.355C135.427 248.845 136.677 247.596 138.189 247.596C139.7 247.596 140.951 248.845 140.951 250.355C140.951 251.865 139.7 253.115 138.189 253.115C136.677 253.115 135.427 251.865 135.427 250.355ZM113.485 250.355C113.485 248.845 114.736 247.596 116.247 247.596C117.759 247.596 119.01 248.845 119.01 250.355C119.01 251.865 117.759 253.115 116.247 253.115C114.736 253.115 113.485 251.865 113.485 250.355ZM91.596 250.355C91.596 248.845 92.7947 247.596 94.3061 247.596C95.8696 247.596 97.0683 248.845 97.0683 250.355C97.0683 251.865 95.8696 253.115 94.3061 253.115C92.7947 253.115 91.596 251.865 91.596 250.355ZM69.6547 250.355C69.6547 248.845 70.9055 247.596 72.4169 247.596C73.9283 247.596 75.127 248.845 75.127 250.355C75.127 251.865 73.9283 253.115 72.4169 253.115C70.9055 253.115 69.6547 251.865 69.6547 250.355ZM47.7133 250.355C47.7133 248.845 48.9641 247.596 50.4755 247.596C51.9869 247.596 53.2377 248.845 53.2377 250.355C53.2377 251.865 51.9869 253.115 50.4755 253.115C48.9641 253.115 47.7133 251.865 47.7133 250.355ZM25.824 250.355C25.824 248.845 27.0227 247.596 28.5341 247.596C30.0455 247.596 31.2963 248.845 31.2963 250.355C31.2963 251.865 30.0455 253.115 28.5341 253.115C27.0227 253.115 25.824 251.865 25.824 250.355Z" fill="white"/>
            <path d="M288.651 268.945C288.651 267.305 289.98 265.925 291.674 265.925C293.316 265.925 294.671 267.305 294.671 268.945C294.671 270.585 293.342 271.965 291.674 271.965C289.98 271.965 288.651 270.585 288.651 268.945ZM266.71 268.945C266.71 267.305 268.091 265.925 269.733 265.925C271.375 265.925 272.756 267.305 272.756 268.945C272.756 270.585 271.375 271.965 269.733 271.965C268.091 271.965 266.71 270.585 266.71 268.945ZM244.821 268.945C244.821 267.305 246.15 265.925 247.818 265.925C249.511 265.925 250.84 267.305 250.84 268.945C250.84 270.585 249.511 271.965 247.818 271.965C246.176 271.965 244.821 270.585 244.821 268.945ZM222.879 268.945C222.879 267.305 224.208 265.925 225.902 265.925C227.544 265.925 228.899 267.305 228.899 268.945C228.899 270.585 227.57 271.965 225.902 271.965C224.208 271.965 222.879 270.585 222.879 268.945ZM200.938 268.945C200.938 267.305 202.319 265.925 203.961 265.925C205.603 265.925 206.958 267.305 206.958 268.945C206.958 270.585 205.629 271.965 203.961 271.965C202.319 271.965 200.938 270.585 200.938 268.945ZM178.997 268.945C178.997 267.305 180.378 265.925 182.019 265.925C183.713 265.925 185.042 267.305 185.042 268.945C185.042 270.585 183.713 271.965 182.019 271.965C180.378 271.965 178.997 270.585 178.997 268.945ZM157.107 268.945C157.107 267.305 158.436 265.925 160.13 265.925C161.772 265.925 163.127 267.305 163.127 268.945C163.127 270.585 161.798 271.965 160.13 271.965C158.436 271.965 157.107 270.585 157.107 268.945ZM135.166 268.945C135.166 267.305 136.495 265.925 138.189 265.925C139.831 265.925 141.186 267.305 141.186 268.945C141.186 270.585 139.857 271.965 138.189 271.965C136.495 271.965 135.166 270.585 135.166 268.945ZM113.225 268.945C113.225 267.305 114.606 265.925 116.248 265.925C117.941 265.925 119.27 267.305 119.27 268.945C119.27 270.585 117.941 271.965 116.248 271.965C114.606 271.965 113.225 270.585 113.225 268.945ZM91.3355 268.945C91.3355 267.305 92.6645 265.925 94.3322 265.925C96.026 265.925 97.355 267.305 97.355 268.945C97.355 270.585 96.026 271.965 94.3322 271.965C92.6905 271.965 91.3355 270.585 91.3355 268.945ZM69.3941 268.945C69.3941 267.305 70.7231 265.925 72.4169 265.925C74.0586 265.925 75.4136 267.305 75.4136 268.945C75.4136 270.585 74.0846 271.965 72.4169 271.965C70.7231 271.965 69.3941 270.585 69.3941 268.945ZM47.4527 268.945C47.4527 267.305 48.8338 265.925 50.4755 265.925C52.1172 265.925 53.4983 267.305 53.4983 268.945C53.4983 270.585 52.1172 271.965 50.4755 271.965C48.8338 271.965 47.4527 270.585 47.4527 268.945ZM25.5635 268.945C25.5635 267.305 26.8925 265.925 28.5602 265.925C30.254 265.925 31.583 267.305 31.583 268.945C31.583 270.585 30.254 271.965 28.5602 271.965C26.9185 271.965 25.5635 270.585 25.5635 268.945Z" fill="white"/>
            <path d="M288.365 287.508C288.365 285.686 289.824 284.254 291.674 284.254C293.472 284.254 294.932 285.686 294.932 287.508C294.932 289.331 293.472 290.815 291.674 290.815C289.85 290.815 288.365 289.357 288.365 287.508ZM266.423 287.508C266.423 285.686 267.883 284.254 269.733 284.254C271.557 284.254 272.99 285.686 272.99 287.508C272.99 289.331 271.557 290.815 269.733 290.815C267.909 290.815 266.423 289.357 266.423 287.508ZM244.534 287.508C244.534 285.686 245.993 284.254 247.792 284.254C249.616 284.254 251.101 285.686 251.101 287.508C251.101 289.331 249.642 290.815 247.792 290.815C246.02 290.815 244.534 289.357 244.534 287.508ZM222.593 287.508C222.593 285.686 224.052 284.254 225.902 284.254C227.7 284.254 229.16 285.686 229.16 287.508C229.16 289.331 227.7 290.815 225.902 290.815C224.078 290.815 222.593 289.357 222.593 287.508ZM200.651 287.508C200.651 285.686 202.111 284.254 203.961 284.254C205.733 284.254 207.218 285.686 207.218 287.508C207.218 289.331 205.759 290.815 203.961 290.815C202.137 290.815 200.651 289.357 200.651 287.508ZM178.762 287.508C178.762 285.686 180.221 284.254 182.02 284.254C183.844 284.254 185.329 285.686 185.329 287.508C185.329 289.331 183.87 290.815 182.02 290.815C180.248 290.815 178.762 289.357 178.762 287.508ZM156.821 287.508C156.821 285.686 158.28 284.254 160.13 284.254C161.928 284.254 163.388 285.686 163.388 287.508C163.388 289.331 161.928 290.815 160.13 290.815C158.306 290.815 156.821 289.357 156.821 287.508ZM134.879 287.508C134.879 285.686 136.339 284.254 138.189 284.254C139.961 284.254 141.446 285.686 141.446 287.508C141.446 289.331 139.987 290.815 138.189 290.815C136.365 290.815 134.879 289.357 134.879 287.508ZM112.938 287.508C112.938 285.686 114.45 284.254 116.248 284.254C118.072 284.254 119.557 285.686 119.557 287.508C119.557 289.331 118.098 290.815 116.248 290.815C114.476 290.815 112.938 289.357 112.938 287.508ZM91.0488 287.508C91.0488 285.686 92.5081 284.254 94.3583 284.254C96.1563 284.254 97.6156 285.686 97.6156 287.508C97.6156 289.331 96.1563 290.815 94.3583 290.815C92.5342 290.815 91.0488 289.357 91.0488 287.508ZM69.1075 287.508C69.1075 285.686 70.5668 284.254 72.4169 284.254C74.1889 284.254 75.6743 285.686 75.6743 287.508C75.6743 289.331 74.215 290.815 72.4169 290.815C70.5928 290.815 69.1075 289.357 69.1075 287.508ZM47.1661 287.508C47.1661 285.686 48.6775 284.254 50.4756 284.254C52.2997 284.254 53.785 285.686 53.785 287.508C53.785 289.331 52.3257 290.815 50.4756 290.815C48.7036 290.815 47.1661 289.357 47.1661 287.508ZM25.2769 287.508C25.2769 285.686 26.7361 284.254 28.5342 284.254C30.3583 284.254 31.8436 285.686 31.8436 287.508C31.8436 289.331 30.3843 290.815 28.5342 290.815C26.7622 290.815 25.2769 289.357 25.2769 287.508Z" fill="white"/>
            <path d="M288.104 306.098C288.104 304.145 289.72 302.583 291.674 302.583C293.603 302.583 295.192 304.145 295.192 306.098C295.192 308.051 293.577 309.613 291.674 309.613C289.72 309.613 288.104 308.051 288.104 306.098ZM266.163 306.098C266.163 304.145 267.778 302.583 269.733 302.583C271.687 302.583 273.251 304.145 273.251 306.098C273.251 308.051 271.687 309.613 269.733 309.613C267.778 309.613 266.163 308.051 266.163 306.098ZM244.274 306.098C244.274 304.145 245.837 302.583 247.791 302.583C249.746 302.583 251.362 304.145 251.362 306.098C251.362 308.051 249.746 309.613 247.791 309.613C245.837 309.613 244.274 308.051 244.274 306.098ZM222.332 306.098C222.332 304.145 223.948 302.583 225.902 302.583C227.831 302.583 229.42 304.145 229.42 306.098C229.42 308.051 227.805 309.613 225.902 309.613C223.948 309.613 222.332 308.051 222.332 306.098ZM200.391 306.098C200.391 304.145 202.006 302.583 203.961 302.583C205.915 302.583 207.479 304.145 207.479 306.098C207.479 308.051 205.915 309.613 203.961 309.613C202.006 309.613 200.391 308.051 200.391 306.098ZM178.502 306.098C178.502 304.145 180.065 302.583 182.02 302.583C183.974 302.583 185.59 304.145 185.59 306.098C185.59 308.051 183.974 309.613 182.02 309.613C180.065 309.613 178.502 308.051 178.502 306.098ZM156.56 306.098C156.56 304.145 158.176 302.583 160.078 302.583C162.033 302.583 163.648 304.145 163.648 306.098C163.648 308.051 162.033 309.613 160.078 309.613C158.15 309.613 156.56 308.051 156.56 306.098ZM134.619 306.098C134.619 304.145 136.234 302.583 138.189 302.583C140.143 302.583 141.707 304.145 141.707 306.098C141.707 308.051 140.143 309.613 138.189 309.613C136.234 309.613 134.619 308.051 134.619 306.098ZM112.73 306.098C112.73 304.145 114.293 302.583 116.248 302.583C118.202 302.583 119.818 304.145 119.818 306.098C119.818 308.051 118.202 309.613 116.248 309.613C114.293 309.613 112.73 308.051 112.73 306.098ZM90.7882 306.098C90.7882 304.145 92.4039 302.583 94.3061 302.583C96.2605 302.583 97.8762 304.145 97.8762 306.098C97.8762 308.051 96.2605 309.613 94.3061 309.613C92.3778 309.613 90.7882 308.051 90.7882 306.098ZM68.8469 306.098C68.8469 304.145 70.4625 302.583 72.4169 302.583C74.3713 302.583 75.9348 304.145 75.9348 306.098C75.9348 308.051 74.3713 309.613 72.4169 309.613C70.4625 309.613 68.8469 308.051 68.8469 306.098ZM46.9576 306.098C46.9576 304.145 48.5211 302.583 50.4755 302.583C52.4299 302.583 53.9934 304.145 53.9934 306.098C53.9934 308.051 52.4299 309.613 50.4755 309.613C48.5211 309.613 46.9576 308.051 46.9576 306.098ZM25.0162 306.098C25.0162 304.145 26.5798 302.583 28.5341 302.583C30.4885 302.583 32.1042 304.145 32.1042 306.098C32.1042 308.051 30.4885 309.613 28.5341 309.613C26.5798 309.613 25.0162 308.051 25.0162 306.098Z" fill="white"/>
            <path d="M287.844 324.661C287.844 322.578 289.59 320.886 291.674 320.886C293.759 320.886 295.453 322.578 295.453 324.661C295.453 326.77 293.759 328.462 291.674 328.462C289.59 328.462 287.844 326.77 287.844 324.661ZM265.954 324.661C265.954 322.578 267.648 320.886 269.733 320.886C271.818 320.886 273.511 322.578 273.511 324.661C273.511 326.77 271.818 328.462 269.733 328.462C267.648 328.462 265.954 326.77 265.954 324.661ZM244.013 324.661C244.013 322.578 245.707 320.886 247.791 320.886C249.876 320.886 251.57 322.578 251.57 324.661C251.57 326.77 249.876 328.462 247.791 328.462C245.707 328.462 244.013 326.77 244.013 324.661ZM222.072 324.661C222.072 322.578 223.765 320.886 225.85 320.886C227.987 320.886 229.681 322.578 229.681 324.661C229.681 326.77 227.987 328.462 225.85 328.462C223.765 328.462 222.072 326.77 222.072 324.661ZM200.182 324.661C200.182 322.578 201.876 320.886 203.961 320.886C206.046 320.886 207.739 322.578 207.739 324.661C207.739 326.77 206.046 328.462 203.961 328.462C201.876 328.462 200.182 326.77 200.182 324.661ZM178.241 324.661C178.241 322.578 179.935 320.886 182.019 320.886C184.104 320.886 185.85 322.578 185.85 324.661C185.85 326.77 184.104 328.462 182.019 328.462C179.935 328.462 178.241 326.77 178.241 324.661ZM156.3 324.661C156.3 322.578 157.993 320.886 160.078 320.886C162.163 320.886 163.909 322.578 163.909 324.661C163.909 326.77 162.163 328.462 160.078 328.462C157.993 328.462 156.3 326.77 156.3 324.661ZM134.358 324.661C134.358 322.578 136.104 320.886 138.189 320.886C140.274 320.886 141.967 322.578 141.967 324.661C141.967 326.77 140.274 328.462 138.189 328.462C136.104 328.462 134.358 326.77 134.358 324.661ZM112.469 324.661C112.469 322.578 114.163 320.886 116.247 320.886C118.332 320.886 120.026 322.578 120.026 324.661C120.026 326.77 118.332 328.462 116.247 328.462C114.163 328.462 112.469 326.77 112.469 324.661ZM90.5276 324.661C90.5276 322.578 92.2214 320.886 94.3582 320.886C96.4429 320.886 98.1367 322.578 98.1367 324.661C98.1367 326.77 96.4429 328.462 94.3582 328.462C92.2214 328.462 90.5276 326.77 90.5276 324.661ZM68.5862 324.661C68.5862 322.578 70.3322 320.886 72.4169 320.886C74.5015 320.886 76.1954 322.578 76.1954 324.661C76.1954 326.77 74.5015 328.462 72.4169 328.462C70.3322 328.462 68.5862 326.77 68.5862 324.661ZM46.697 324.661C46.697 322.578 48.3908 320.886 50.4755 320.886C52.5602 320.886 54.254 322.578 54.254 324.661C54.254 326.77 52.5602 328.462 50.4755 328.462C48.3908 328.462 46.697 326.77 46.697 324.661ZM24.7556 324.661C24.7556 322.578 26.4494 320.886 28.5341 320.886C30.6709 320.886 32.3647 322.578 32.3647 324.661C32.3647 326.77 30.6709 328.462 28.5341 328.462C26.4494 328.462 24.7556 326.77 24.7556 324.661Z" fill="white"/>
            <path d="M287.557 343.251C287.557 341.012 289.381 339.189 291.648 339.189C293.889 339.189 295.713 341.012 295.713 343.251C295.713 345.49 293.889 347.312 291.648 347.312C289.381 347.312 287.557 345.49 287.557 343.251ZM265.668 343.251C265.668 341.012 267.492 339.189 269.733 339.189C271.974 339.189 273.798 341.012 273.798 343.251C273.798 345.49 271.974 347.312 269.733 347.312C267.492 347.312 265.668 345.49 265.668 343.251ZM243.726 343.251C243.726 341.012 245.55 339.189 247.792 339.189C250.059 339.189 251.857 341.012 251.857 343.251C251.857 345.49 250.059 347.312 247.792 347.312C245.55 347.312 243.726 345.49 243.726 343.251ZM221.785 343.251C221.785 341.012 223.609 339.189 225.876 339.189C228.117 339.189 229.941 341.012 229.941 343.251C229.941 345.49 228.117 347.312 225.876 347.312C223.609 347.312 221.785 345.49 221.785 343.251ZM199.896 343.251C199.896 341.012 201.694 339.189 203.961 339.189C206.202 339.189 208.026 341.012 208.026 343.251C208.026 345.49 206.202 347.312 203.961 347.312C201.694 347.312 199.896 345.49 199.896 343.251ZM177.954 343.251C177.954 341.012 179.779 339.189 182.02 339.189C184.287 339.189 186.085 341.012 186.085 343.251C186.085 345.49 184.287 347.312 182.02 347.312C179.779 347.312 177.954 345.49 177.954 343.251ZM156.013 343.251C156.013 341.012 157.837 339.189 160.104 339.189C162.345 339.189 164.169 341.012 164.169 343.251C164.169 345.49 162.345 347.312 160.104 347.312C157.837 347.312 156.013 345.49 156.013 343.251ZM134.124 343.251C134.124 341.012 135.922 339.189 138.189 339.189C140.43 339.189 142.254 341.012 142.254 343.251C142.254 345.49 140.43 347.312 138.189 347.312C135.922 347.312 134.124 345.49 134.124 343.251ZM112.182 343.251C112.182 341.012 114.007 339.189 116.248 339.189C118.489 339.189 120.313 341.012 120.313 343.251C120.313 345.49 118.489 347.312 116.248 347.312C114.007 347.312 112.182 345.49 112.182 343.251ZM90.2411 343.251C90.2411 341.012 92.0651 339.189 94.3062 339.189C96.5733 339.189 98.3974 341.012 98.3974 343.251C98.3974 345.49 96.5733 347.312 94.3062 347.312C92.0651 347.312 90.2411 345.49 90.2411 343.251ZM68.2997 343.251C68.2997 341.012 70.1238 339.189 72.3909 339.189C74.6319 339.189 76.456 341.012 76.456 343.251C76.456 345.49 74.6319 347.312 72.3909 347.312C70.1238 347.312 68.2997 345.49 68.2997 343.251ZM46.4104 343.251C46.4104 341.012 48.2345 339.189 50.4756 339.189C52.7166 339.189 54.5407 341.012 54.5407 343.251C54.5407 345.49 52.7166 347.312 50.4756 347.312C48.2345 347.312 46.4104 345.49 46.4104 343.251ZM24.4691 343.251C24.4691 341.012 26.2932 339.189 28.5342 339.189C30.8013 339.189 32.6254 341.012 32.6254 343.251C32.6254 345.49 30.8013 347.312 28.5342 347.312C26.2932 347.312 24.4691 345.49 24.4691 343.251Z" fill="white"/>
            <path d="M287.296 361.814C287.296 359.419 289.251 357.492 291.674 357.492C294.046 357.492 296 359.419 296 361.814C296 364.183 294.046 366.136 291.674 366.136C289.277 366.136 287.296 364.183 287.296 361.814ZM265.407 361.814C265.407 359.419 267.335 357.492 269.733 357.492C272.13 357.492 274.059 359.419 274.059 361.814C274.059 364.183 272.13 366.136 269.733 366.136C267.335 366.136 265.407 364.183 265.407 361.814ZM243.466 361.814C243.466 359.419 245.42 357.492 247.792 357.492C250.189 357.492 252.117 359.419 252.117 361.814C252.117 364.183 250.189 366.136 247.792 366.136C245.42 366.136 243.466 364.183 243.466 361.814ZM221.577 361.814C221.577 359.419 223.505 357.492 225.85 357.492C228.248 357.492 230.228 359.419 230.228 361.814C230.228 364.183 228.274 366.136 225.85 366.136C223.479 366.136 221.577 364.183 221.577 361.814ZM199.635 361.814C199.635 359.419 201.563 357.492 203.961 357.492C206.332 357.492 208.287 359.419 208.287 361.814C208.287 364.183 206.332 366.136 203.961 366.136C201.563 366.136 199.635 364.183 199.635 361.814ZM177.694 361.814C177.694 359.419 179.648 357.492 182.02 357.492C184.417 357.492 186.345 359.419 186.345 361.814C186.345 364.183 184.417 366.136 182.02 366.136C179.648 366.136 177.694 364.183 177.694 361.814ZM155.752 361.814C155.752 359.419 157.707 357.492 160.13 357.492C162.502 357.492 164.404 359.419 164.404 361.814C164.404 364.183 162.476 366.136 160.13 366.136C157.733 366.136 155.752 364.183 155.752 361.814ZM133.863 361.814C133.863 359.419 135.791 357.492 138.189 357.492C140.56 357.492 142.515 359.419 142.515 361.814C142.515 364.183 140.56 366.136 138.189 366.136C135.791 366.136 133.863 364.183 133.863 361.814ZM111.922 361.814C111.922 359.419 113.85 357.492 116.248 357.492C118.645 357.492 120.573 359.419 120.573 361.814C120.573 364.183 118.645 366.136 116.248 366.136C113.85 366.136 111.922 364.183 111.922 361.814ZM89.9804 361.814C89.9804 359.419 91.9348 357.492 94.3062 357.492C96.7035 357.492 98.684 359.419 98.684 361.814C98.684 364.183 96.7296 366.136 94.3062 366.136C91.9348 366.136 89.9804 364.183 89.9804 361.814ZM68.0912 361.814C68.0912 359.419 70.0195 357.492 72.4169 357.492C74.7882 357.492 76.7426 359.419 76.7426 361.814C76.7426 364.183 74.7882 366.136 72.4169 366.136C70.0195 366.136 68.0912 364.183 68.0912 361.814ZM46.1498 361.814C46.1498 359.419 48.1042 357.492 50.4755 357.492C52.8729 357.492 54.8013 359.419 54.8013 361.814C54.8013 364.183 52.8729 366.136 50.4755 366.136C48.1042 366.136 46.1498 364.183 46.1498 361.814ZM24.2084 361.814C24.2084 359.419 26.1628 357.492 28.5342 357.492C30.9316 357.492 32.8599 359.419 32.8599 361.814C32.8599 364.183 30.9316 366.136 28.5342 366.136C26.1628 366.136 24.2084 364.183 24.2084 361.814Z" fill="white"/>
            <path d="M287.088 380.378C287.088 377.826 289.147 375.795 291.674 375.795C294.176 375.795 296.261 377.852 296.261 380.378C296.261 382.903 294.176 384.96 291.674 384.96C289.147 384.96 287.088 382.903 287.088 380.378ZM265.147 380.378C265.147 377.826 267.205 375.795 269.733 375.795C272.287 375.795 274.319 377.852 274.319 380.378C274.319 382.903 272.261 384.96 269.733 384.96C267.205 384.96 265.147 382.903 265.147 380.378ZM243.205 380.378C243.205 377.826 245.264 375.795 247.791 375.795C250.319 375.795 252.378 377.852 252.378 380.378C252.378 382.903 250.319 384.96 247.791 384.96C245.264 384.96 243.205 382.903 243.205 380.378ZM221.316 380.378C221.316 377.826 223.375 375.795 225.876 375.795C228.404 375.795 230.462 377.852 230.462 380.378C230.462 382.903 228.404 384.96 225.876 384.96C223.375 384.96 221.316 382.903 221.316 380.378ZM199.375 380.378C199.375 377.826 201.433 375.795 203.961 375.795C206.515 375.795 208.547 377.852 208.547 380.378C208.547 382.903 206.489 384.96 203.961 384.96C201.433 384.96 199.375 382.903 199.375 380.378ZM177.433 380.378C177.433 377.826 179.492 375.795 182.019 375.795C184.547 375.795 186.606 377.852 186.606 380.378C186.606 382.903 184.547 384.96 182.019 384.96C179.492 384.96 177.433 382.903 177.433 380.378ZM155.492 380.378C155.492 377.826 157.576 375.795 160.13 375.795C162.632 375.795 164.691 377.852 164.691 380.378C164.691 382.903 162.632 384.96 160.13 384.96C157.603 384.96 155.492 382.903 155.492 380.378ZM133.603 380.378C133.603 377.826 135.661 375.795 138.189 375.795C140.743 375.795 142.775 377.852 142.775 380.378C142.775 382.903 140.717 384.96 138.189 384.96C135.661 384.96 133.603 382.903 133.603 380.378ZM111.661 380.378C111.661 377.826 113.72 375.795 116.248 375.795C118.775 375.795 120.834 377.852 120.834 380.378C120.834 382.903 118.775 384.96 116.248 384.96C113.72 384.96 111.661 382.903 111.661 380.378ZM89.7719 380.378C89.7719 377.826 91.8306 375.795 94.3582 375.795C96.8599 375.795 98.9185 377.852 98.9185 380.378C98.9185 382.903 96.8599 384.96 94.3582 384.96C91.8306 384.96 89.7719 382.903 89.7719 380.378ZM67.8306 380.378C67.8306 377.826 69.8892 375.795 72.4169 375.795C74.9706 375.795 77.0032 377.852 77.0032 380.378C77.0032 382.903 74.9446 384.96 72.4169 384.96C69.8892 384.96 67.8306 382.903 67.8306 380.378ZM45.8892 380.378C45.8892 377.826 47.9478 375.795 50.4755 375.795C53.0032 375.795 55.0618 377.852 55.0618 380.378C55.0618 382.903 53.0032 384.96 50.4755 384.96C47.9478 384.96 45.8892 382.903 45.8892 380.378ZM23.9999 380.378C23.9999 377.826 26.0586 375.795 28.5602 375.795C31.0879 375.795 33.1465 377.852 33.1465 380.378C33.1465 382.903 31.0879 384.96 28.5602 384.96C26.0586 384.96 23.9999 382.903 23.9999 380.378Z" fill="white"/>
            <path d="M286.801 398.967C286.801 396.285 288.99 394.124 291.648 394.124C294.332 394.124 296.469 396.311 296.469 398.967C296.469 401.649 294.332 403.81 291.648 403.81C288.964 403.81 286.801 401.623 286.801 398.967ZM264.86 398.967C264.86 396.285 267.049 394.124 269.707 394.124C272.391 394.124 274.554 396.311 274.554 398.967C274.554 401.649 272.365 403.81 269.707 403.81C267.023 403.81 264.86 401.623 264.86 398.967ZM242.919 398.967C242.919 396.285 245.107 394.124 247.765 394.124C250.449 394.124 252.612 396.311 252.612 398.967C252.612 401.649 250.423 403.81 247.765 403.81C245.081 403.81 242.919 401.623 242.919 398.967ZM221.029 398.967C221.029 396.285 223.166 394.124 225.876 394.124C228.56 394.124 230.697 396.311 230.697 398.967C230.697 401.649 228.56 403.81 225.876 403.81C223.166 403.81 221.029 401.623 221.029 398.967ZM199.088 398.967C199.088 396.285 201.277 394.124 203.935 394.124C206.619 394.124 208.782 396.311 208.782 398.967C208.782 401.649 206.593 403.81 203.935 403.81C201.251 403.81 199.088 401.623 199.088 398.967ZM177.147 398.967C177.147 396.285 179.335 394.124 181.993 394.124C184.677 394.124 186.84 396.311 186.84 398.967C186.84 401.649 184.651 403.81 181.993 403.81C179.309 403.81 177.147 401.623 177.147 398.967ZM155.257 398.967C155.257 396.285 157.394 394.124 160.104 394.124C162.788 394.124 164.925 396.311 164.925 398.967C164.925 401.649 162.788 403.81 160.104 403.81C157.394 403.81 155.257 401.623 155.257 398.967ZM133.316 398.967C133.316 396.285 135.505 394.124 138.163 394.124C140.847 394.124 143.01 396.311 143.01 398.967C143.01 401.649 140.821 403.81 138.163 403.81C135.479 403.81 133.316 401.623 133.316 398.967ZM111.375 398.967C111.375 396.285 113.563 394.124 116.221 394.124C118.906 394.124 121.068 396.311 121.068 398.967C121.068 401.649 118.879 403.81 116.221 403.81C113.537 403.81 111.375 401.623 111.375 398.967ZM89.4853 398.967C89.4853 396.285 91.6221 394.124 94.3062 394.124C97.0163 394.124 99.1531 396.311 99.1531 398.967C99.1531 401.649 97.0163 403.81 94.3062 403.81C91.6221 403.81 89.4853 401.623 89.4853 398.967ZM67.5439 398.967C67.5439 396.285 69.7329 394.124 72.3908 394.124C75.0749 394.124 77.2117 396.311 77.2117 398.967C77.2117 401.649 75.0749 403.81 72.3908 403.81C69.7068 403.81 67.5439 401.623 67.5439 398.967ZM45.6026 398.967C45.6026 396.285 47.7915 394.124 50.4495 394.124C53.1335 394.124 55.2964 396.311 55.2964 398.967C55.2964 401.649 53.1075 403.81 50.4495 403.81C47.7654 403.81 45.6026 401.623 45.6026 398.967ZM23.7133 398.967C23.7133 396.285 25.8501 394.124 28.5342 394.124C31.2443 394.124 33.3811 396.311 33.3811 398.967C33.3811 401.649 31.2443 403.81 28.5342 403.81C25.8501 403.81 23.7133 401.623 23.7133 398.967Z" fill="white"/>
            <path d="M286.541 417.531C286.541 414.667 288.808 412.401 291.674 412.401C294.489 412.401 296.756 414.667 296.756 417.531C296.756 420.342 294.489 422.66 291.674 422.66C288.834 422.66 286.541 420.342 286.541 417.531ZM264.599 417.531C264.599 414.667 266.919 412.401 269.733 412.401C272.547 412.401 274.866 414.667 274.866 417.531C274.866 420.342 272.547 422.66 269.733 422.66C266.919 422.66 264.599 420.342 264.599 417.531ZM242.71 417.531C242.71 414.667 244.977 412.401 247.791 412.401C250.658 412.401 252.925 414.667 252.925 417.531C252.925 420.342 250.658 422.66 247.791 422.66C244.977 422.66 242.71 420.342 242.71 417.531ZM220.769 417.531C220.769 414.667 223.036 412.401 225.85 412.401C228.717 412.401 230.984 414.667 230.984 417.531C230.984 420.342 228.717 422.66 225.85 422.66C223.036 422.66 220.769 420.342 220.769 417.531ZM198.827 417.531C198.827 414.667 201.094 412.401 203.961 412.401C206.775 412.401 209.094 414.667 209.094 417.531C209.094 420.342 206.775 422.66 203.961 422.66C201.094 422.66 198.827 420.342 198.827 417.531ZM176.886 417.531C176.886 414.667 179.205 412.401 182.019 412.401C184.886 412.401 187.153 414.667 187.153 417.531C187.153 420.342 184.886 422.66 182.019 422.66C179.205 422.66 176.886 420.342 176.886 417.531ZM154.997 417.531C154.997 414.667 157.264 412.401 160.13 412.401C162.945 412.401 165.212 414.667 165.212 417.531C165.212 420.342 162.945 422.66 160.13 422.66C157.29 422.66 154.997 420.342 154.997 417.531ZM133.055 417.531C133.055 414.667 135.322 412.401 138.189 412.401C141.003 412.401 143.27 414.667 143.27 417.531C143.27 420.342 141.003 422.66 138.189 422.66C135.322 422.66 133.055 420.342 133.055 417.531ZM111.114 417.531C111.114 414.667 113.433 412.401 116.247 412.401C119.062 412.401 121.381 414.667 121.381 417.531C121.381 420.342 119.062 422.66 116.247 422.66C113.433 422.66 111.114 420.342 111.114 417.531ZM89.2247 417.531C89.2247 414.667 91.4918 412.401 94.3061 412.401C97.1726 412.401 99.4397 414.667 99.4397 417.531C99.4397 420.342 97.1726 422.66 94.3061 422.66C91.4918 422.66 89.2247 420.342 89.2247 417.531ZM67.2833 417.531C67.2833 414.667 69.5504 412.401 72.4169 412.401C75.2312 412.401 77.5504 414.667 77.5504 417.531C77.5504 420.342 75.2312 422.66 72.4169 422.66C69.5504 422.66 67.2833 420.342 67.2833 417.531ZM45.3419 417.531C45.3419 414.667 47.6612 412.401 50.4755 412.401C53.342 412.401 55.6091 414.667 55.6091 417.531C55.6091 420.342 53.342 422.66 50.4755 422.66C47.6612 422.66 45.3419 420.342 45.3419 417.531ZM23.4527 417.531C23.4527 414.667 25.7198 412.401 28.5341 412.401C31.4006 412.401 33.6677 414.667 33.6677 417.531C33.6677 420.342 31.4006 422.66 28.5341 422.66C25.7198 422.66 23.4527 420.342 23.4527 417.531Z" fill="white"/>
            <path d="M286.28 436.12C286.28 433.126 288.677 430.731 291.674 430.731C294.619 430.731 297.016 433.126 297.016 436.12C297.016 439.062 294.619 441.509 291.674 441.509C288.677 441.509 286.28 439.062 286.28 436.12ZM264.339 436.12C264.339 433.126 266.736 430.731 269.733 430.731C272.677 430.731 275.075 433.126 275.075 436.12C275.075 439.062 272.677 441.509 269.733 441.509C266.736 441.509 264.339 439.062 264.339 436.12ZM242.449 436.12C242.449 433.126 244.847 430.731 247.791 430.731C250.788 430.731 253.186 433.126 253.186 436.12C253.186 439.062 250.788 441.509 247.791 441.509C244.847 441.509 242.449 439.062 242.449 436.12ZM220.508 436.12C220.508 433.126 222.905 430.731 225.902 430.731C228.847 430.731 231.244 433.126 231.244 436.12C231.244 439.062 228.847 441.509 225.902 441.509C222.905 441.509 220.508 439.062 220.508 436.12ZM198.567 436.12C198.567 433.126 200.964 430.731 203.961 430.731C206.905 430.731 209.303 433.126 209.303 436.12C209.303 439.062 206.905 441.509 203.961 441.509C200.964 441.509 198.567 439.062 198.567 436.12ZM176.677 436.12C176.677 433.126 179.075 430.731 182.019 430.731C185.016 430.731 187.414 433.126 187.414 436.12C187.414 439.062 185.016 441.509 182.019 441.509C179.075 441.509 176.677 439.062 176.677 436.12ZM154.736 436.12C154.736 433.126 157.133 430.731 160.13 430.731C163.075 430.731 165.472 433.126 165.472 436.12C165.472 439.062 163.075 441.509 160.13 441.509C157.133 441.509 154.736 439.062 154.736 436.12ZM132.795 436.12C132.795 433.126 135.192 430.731 138.189 430.731C141.133 430.731 143.531 433.126 143.531 436.12C143.531 439.062 141.133 441.509 138.189 441.509C135.192 441.509 132.795 439.062 132.795 436.12ZM110.905 436.12C110.905 433.126 113.303 430.731 116.247 430.731C119.244 430.731 121.642 433.126 121.642 436.12C121.642 439.062 119.244 441.509 116.247 441.509C113.303 441.509 110.905 439.062 110.905 436.12ZM88.9641 436.12C88.9641 433.126 91.3615 430.731 94.3061 430.731C97.3028 430.731 99.7002 433.126 99.7002 436.12C99.7002 439.062 97.3028 441.509 94.3061 441.509C91.3615 441.509 88.9641 439.062 88.9641 436.12ZM67.0227 436.12C67.0227 433.126 69.4201 430.731 72.4168 430.731C75.3615 430.731 77.7589 433.126 77.7589 436.12C77.7589 439.062 75.3615 441.509 72.4168 441.509C69.4201 441.509 67.0227 439.062 67.0227 436.12ZM45.0813 436.12C45.0813 433.126 47.4787 430.731 50.4755 430.731C53.4722 430.731 55.8696 433.126 55.8696 436.12C55.8696 439.062 53.4722 441.509 50.4755 441.509C47.4787 441.509 45.0813 439.062 45.0813 436.12ZM23.1921 436.12C23.1921 433.126 25.5895 430.731 28.5341 430.731C31.5308 430.731 33.9282 433.126 33.9282 436.12C33.9282 439.062 31.5308 441.509 28.5341 441.509C25.5895 441.509 23.1921 439.062 23.1921 436.12Z" fill="white"/>
            <path d="M286.019 454.683C286.019 451.559 288.573 449.034 291.674 449.034C294.749 449.034 297.303 451.559 297.303 454.683C297.303 457.808 294.749 460.307 291.674 460.307C288.547 460.307 286.019 457.808 286.019 454.683ZM264.078 454.683C264.078 451.559 266.632 449.034 269.733 449.034C272.86 449.034 275.361 451.559 275.361 454.683C275.361 457.808 272.86 460.307 269.733 460.307C266.606 460.307 264.078 457.808 264.078 454.683ZM242.189 454.683C242.189 451.559 244.69 449.034 247.818 449.034C250.945 449.034 253.472 451.559 253.472 454.683C253.472 457.808 250.945 460.307 247.818 460.307C244.69 460.307 242.189 457.808 242.189 454.683ZM220.247 454.683C220.247 451.559 222.801 449.034 225.902 449.034C228.977 449.034 231.531 451.559 231.531 454.683C231.531 457.808 228.977 460.307 225.902 460.307C222.775 460.307 220.247 457.808 220.247 454.683ZM198.306 454.683C198.306 451.559 200.86 449.034 203.961 449.034C207.088 449.034 209.59 451.559 209.59 454.683C209.59 457.808 207.088 460.307 203.961 460.307C200.834 460.307 198.306 457.808 198.306 454.683ZM176.417 454.683C176.417 451.559 178.919 449.034 182.046 449.034C185.173 449.034 187.7 451.559 187.7 454.683C187.7 457.808 185.173 460.307 182.046 460.307C178.919 460.307 176.417 457.808 176.417 454.683ZM154.475 454.683C154.475 451.559 157.029 449.034 160.13 449.034C163.205 449.034 165.759 451.559 165.759 454.683C165.759 457.808 163.205 460.307 160.13 460.307C157.003 460.307 154.475 457.808 154.475 454.683ZM132.534 454.683C132.534 451.559 135.088 449.034 138.189 449.034C141.316 449.034 143.818 451.559 143.818 454.683C143.818 457.808 141.316 460.307 138.189 460.307C135.062 460.307 132.534 457.808 132.534 454.683ZM110.645 454.683C110.645 451.559 113.147 449.034 116.274 449.034C119.401 449.034 121.928 451.559 121.928 454.683C121.928 457.808 119.401 460.307 116.274 460.307C113.147 460.307 110.645 457.808 110.645 454.683ZM88.7035 454.683C88.7035 451.559 91.2573 449.034 94.3322 449.034C97.4592 449.034 99.9869 451.559 99.9869 454.683C99.9869 457.808 97.4332 460.307 94.3322 460.307C91.2573 460.307 88.7035 457.808 88.7035 454.683ZM66.7621 454.683C66.7621 451.559 69.3159 449.034 72.4169 449.034C75.5439 449.034 78.0455 451.559 78.0455 454.683C78.0455 457.808 75.5439 460.307 72.4169 460.307C69.2898 460.307 66.7621 457.808 66.7621 454.683ZM44.8729 454.683C44.8729 451.559 47.3745 449.034 50.5016 449.034C53.6286 449.034 56.1563 451.559 56.1563 454.683C56.1563 457.808 53.6286 460.307 50.5016 460.307C47.3745 460.307 44.8729 457.808 44.8729 454.683ZM22.9315 454.683C22.9315 451.559 25.4853 449.034 28.5602 449.034C31.6872 449.034 34.2149 451.559 34.2149 454.683C34.2149 457.808 31.6612 460.307 28.5602 460.307C25.4853 460.307 22.9315 457.808 22.9315 454.683Z" fill="white"/>
            <path d="M285.733 473.273C285.733 470.018 288.365 467.337 291.674 467.337C294.931 467.337 297.563 470.018 297.563 473.273C297.563 476.527 294.931 479.157 291.674 479.157C288.365 479.157 285.733 476.527 285.733 473.273ZM263.844 473.273C263.844 470.018 266.475 467.337 269.733 467.337C272.99 467.337 275.622 470.018 275.622 473.273C275.622 476.527 272.99 479.157 269.733 479.157C266.475 479.157 263.844 476.527 263.844 473.273ZM241.902 473.273C241.902 470.018 244.534 467.337 247.791 467.337C251.049 467.337 253.733 470.018 253.733 473.273C253.733 476.527 251.049 479.157 247.791 479.157C244.534 479.157 241.902 476.527 241.902 473.273ZM219.961 473.273C219.961 470.018 222.593 467.337 225.85 467.337C229.16 467.337 231.791 470.018 231.791 473.273C231.791 476.527 229.16 479.157 225.85 479.157C222.593 479.157 219.961 476.527 219.961 473.273ZM198.019 473.273C198.019 470.018 200.703 467.337 203.961 467.337C207.218 467.337 209.85 470.018 209.85 473.273C209.85 476.527 207.218 479.157 203.961 479.157C200.703 479.157 198.019 476.527 198.019 473.273ZM176.13 473.273C176.13 470.018 178.762 467.337 182.019 467.337C185.277 467.337 187.909 470.018 187.909 473.273C187.909 476.527 185.277 479.157 182.019 479.157C178.762 479.157 176.13 476.527 176.13 473.273ZM154.189 473.273C154.189 470.018 156.821 467.337 160.13 467.337C163.388 467.337 166.019 470.018 166.019 473.273C166.019 476.527 163.388 479.157 160.13 479.157C156.821 479.157 154.189 476.527 154.189 473.273ZM132.247 473.273C132.247 470.018 134.931 467.337 138.189 467.337C141.446 467.337 144.078 470.018 144.078 473.273C144.078 476.527 141.446 479.157 138.189 479.157C134.931 479.157 132.247 476.527 132.247 473.273ZM110.358 473.273C110.358 470.018 112.99 467.337 116.247 467.337C119.505 467.337 122.189 470.018 122.189 473.273C122.189 476.527 119.505 479.157 116.247 479.157C112.99 479.157 110.358 476.527 110.358 473.273ZM88.4168 473.273C88.4168 470.018 91.0488 467.337 94.3061 467.337C97.6155 467.337 100.247 470.018 100.247 473.273C100.247 476.527 97.6155 479.157 94.3061 479.157C91.0488 479.157 88.4168 476.527 88.4168 473.273ZM66.4755 473.273C66.4755 470.018 69.1595 467.337 72.4168 467.337C75.6742 467.337 78.3061 470.018 78.3061 473.273C78.3061 476.527 75.6742 479.157 72.4168 479.157C69.1595 479.157 66.4755 476.527 66.4755 473.273ZM44.5862 473.273C44.5862 470.018 47.2181 467.337 50.4755 467.337C53.7328 467.337 56.3647 470.018 56.3647 473.273C56.3647 476.527 53.7328 479.157 50.4755 479.157C47.2181 479.157 44.5862 476.527 44.5862 473.273ZM22.6448 473.273C22.6448 470.018 25.2768 467.337 28.5862 467.337C31.7914 467.337 34.4755 470.018 34.4755 473.273C34.4755 476.527 31.7914 479.157 28.5862 479.157C25.2768 479.157 22.6448 476.527 22.6448 473.273Z" fill="white"/>
            <path d="M285.472 491.836C285.472 488.4 288.234 485.692 291.674 485.692C295.062 485.692 297.824 488.4 297.824 491.836C297.824 495.221 295.062 497.981 291.674 497.981C288.234 497.981 285.472 495.221 285.472 491.836ZM263.583 491.836C263.583 488.4 266.345 485.692 269.733 485.692C273.12 485.692 275.883 488.4 275.883 491.836C275.883 495.221 273.12 497.981 269.733 497.981C266.345 497.981 263.583 495.221 263.583 491.836ZM241.642 491.836C241.642 488.4 244.404 485.692 247.791 485.692C251.231 485.692 253.993 488.4 253.993 491.836C253.993 495.221 251.231 497.981 247.791 497.981C244.404 497.981 241.642 495.221 241.642 491.836ZM219.7 491.836C219.7 488.4 222.463 485.692 225.902 485.692C229.29 485.692 232.052 488.4 232.052 491.836C232.052 495.221 229.29 497.981 225.902 497.981C222.463 497.981 219.7 495.221 219.7 491.836ZM197.811 491.836C197.811 488.4 200.573 485.692 203.961 485.692C207.348 485.692 210.111 488.4 210.111 491.836C210.111 495.221 207.348 497.981 203.961 497.981C200.573 497.981 197.811 495.221 197.811 491.836ZM175.87 491.836C175.87 488.4 178.632 485.692 182.02 485.692C185.407 485.692 188.221 488.4 188.221 491.836C188.221 495.221 185.407 497.981 182.02 497.981C178.632 497.981 175.87 495.221 175.87 491.836ZM153.928 491.836C153.928 488.4 156.691 485.692 160.13 485.692C163.518 485.692 166.28 488.4 166.28 491.836C166.28 495.221 163.518 497.981 160.13 497.981C156.691 497.981 153.928 495.221 153.928 491.836ZM131.987 491.836C131.987 488.4 134.801 485.692 138.189 485.692C141.577 485.692 144.339 488.4 144.339 491.836C144.339 495.221 141.577 497.981 138.189 497.981C134.801 497.981 131.987 495.221 131.987 491.836ZM110.098 491.836C110.098 488.4 112.86 485.692 116.248 485.692C119.635 485.692 122.397 488.4 122.397 491.836C122.397 495.221 119.635 497.981 116.248 497.981C112.86 497.981 110.098 495.221 110.098 491.836ZM88.1563 491.836C88.1563 488.4 90.9185 485.692 94.3062 485.692C97.7459 485.692 100.508 488.4 100.508 491.836C100.508 495.221 97.7459 497.981 94.3062 497.981C90.9185 497.981 88.1563 495.221 88.1563 491.836ZM66.215 491.836C66.215 488.4 68.9772 485.692 72.4169 485.692C75.8045 485.692 78.5667 488.4 78.5667 491.836C78.5667 495.221 75.8045 497.981 72.4169 497.981C68.9772 497.981 66.215 495.221 66.215 491.836ZM44.3257 491.836C44.3257 488.4 47.0879 485.692 50.4755 485.692C53.8632 485.692 56.6254 488.4 56.6254 491.836C56.6254 495.221 53.8632 497.981 50.4755 497.981C47.0879 497.981 44.3257 495.221 44.3257 491.836ZM22.3843 491.836C22.3843 488.4 25.1466 485.692 28.5342 485.692C31.9739 485.692 34.7361 488.4 34.7361 491.836C34.7361 495.221 31.9739 497.981 28.5342 497.981C25.1466 497.981 22.3843 495.221 22.3843 491.836Z" fill="white"/>
            <path d="M285.212 510.426C285.212 506.859 288.104 504.021 291.674 504.021C295.192 504.021 298.085 506.859 298.085 510.426C298.085 513.941 295.192 516.831 291.674 516.831C288.104 516.831 285.212 513.941 285.212 510.426ZM263.322 510.426C263.322 506.859 266.189 504.021 269.733 504.021C273.251 504.021 276.143 506.859 276.143 510.426C276.143 513.941 273.251 516.831 269.733 516.831C266.163 516.831 263.322 513.941 263.322 510.426ZM241.381 510.426C241.381 506.859 244.273 504.021 247.791 504.021C251.361 504.021 254.202 506.859 254.202 510.426C254.202 513.941 251.335 516.831 247.791 516.831C244.273 516.831 241.381 513.941 241.381 510.426ZM219.44 510.426C219.44 506.859 222.332 504.021 225.902 504.021C229.42 504.021 232.313 506.859 232.313 510.426C232.313 513.941 229.42 516.831 225.902 516.831C222.332 516.831 219.44 513.941 219.44 510.426ZM197.55 510.426C197.55 506.859 200.417 504.021 203.961 504.021C207.479 504.021 210.371 506.859 210.371 510.426C210.371 513.941 207.479 516.831 203.961 516.831C200.391 516.831 197.55 513.941 197.55 510.426ZM175.609 510.426C175.609 506.859 178.502 504.021 182.019 504.021C185.589 504.021 188.43 506.859 188.43 510.426C188.43 513.941 185.563 516.831 182.019 516.831C178.502 516.831 175.609 513.941 175.609 510.426ZM153.668 510.426C153.668 506.859 156.56 504.021 160.13 504.021C163.648 504.021 166.541 506.859 166.541 510.426C166.541 513.941 163.648 516.831 160.13 516.831C156.56 516.831 153.668 513.941 153.668 510.426ZM131.778 510.426C131.778 506.859 134.645 504.021 138.189 504.021C141.707 504.021 144.599 506.859 144.599 510.426C144.599 513.941 141.707 516.831 138.189 516.831C134.619 516.831 131.778 513.941 131.778 510.426ZM109.837 510.426C109.837 506.859 112.703 504.021 116.247 504.021C119.817 504.021 122.658 506.859 122.658 510.426C122.658 513.941 119.791 516.831 116.247 516.831C112.677 516.831 109.837 513.941 109.837 510.426ZM87.8956 510.426C87.8956 506.859 90.7881 504.021 94.3582 504.021C97.8761 504.021 100.769 506.859 100.769 510.426C100.769 513.941 97.8761 516.831 94.3582 516.831C90.7881 516.831 87.8956 513.941 87.8956 510.426ZM66.0064 510.426C66.0064 506.859 68.8728 504.021 72.4168 504.021C75.9347 504.021 78.8272 506.859 78.8272 510.426C78.8272 513.941 75.9347 516.831 72.4168 516.831C68.8468 516.831 66.0064 513.941 66.0064 510.426ZM44.065 510.426C44.065 506.859 46.9315 504.021 50.4755 504.021C54.0455 504.021 56.8859 506.859 56.8859 510.426C56.8859 513.941 54.0194 516.831 50.4755 516.831C46.9054 516.831 44.065 513.941 44.065 510.426ZM22.1237 510.426C22.1237 506.859 25.0162 504.021 28.5341 504.021C32.1041 504.021 34.9966 506.859 34.9966 510.426C34.9966 513.941 32.1041 516.831 28.5341 516.831C25.0162 516.831 22.1237 513.941 22.1237 510.426Z" fill="white"/>
            <path d="M284.925 528.989C284.925 525.292 287.948 522.298 291.648 522.298C295.296 522.298 298.345 525.292 298.345 528.989C298.345 532.686 295.322 535.68 291.648 535.68C287.948 535.68 284.925 532.686 284.925 528.989ZM263.036 528.989C263.036 525.292 266.033 522.298 269.733 522.298C273.433 522.298 276.43 525.292 276.43 528.989C276.43 532.686 273.433 535.68 269.733 535.68C266.033 535.68 263.036 532.686 263.036 528.989ZM241.094 528.989C241.094 525.292 244.091 522.298 247.792 522.298C251.492 522.298 254.489 525.292 254.489 528.989C254.489 532.686 251.492 535.68 247.792 535.68C244.091 535.68 241.094 532.686 241.094 528.989ZM219.205 528.989C219.205 525.292 222.202 522.298 225.85 522.298C229.55 522.298 232.573 525.292 232.573 528.989C232.573 532.686 229.55 535.68 225.85 535.68C222.202 535.68 219.205 532.686 219.205 528.989ZM197.264 528.989C197.264 525.292 200.261 522.298 203.961 522.298C207.661 522.298 210.658 525.292 210.658 528.989C210.658 532.686 207.661 535.68 203.961 535.68C200.261 535.68 197.264 532.686 197.264 528.989ZM175.322 528.989C175.322 525.292 178.319 522.298 182.02 522.298C185.72 522.298 188.717 525.292 188.717 528.989C188.717 532.686 185.72 535.68 182.02 535.68C178.319 535.68 175.322 532.686 175.322 528.989ZM153.381 528.989C153.381 525.292 156.404 522.298 160.104 522.298C163.752 522.298 166.749 525.292 166.749 528.989C166.749 532.686 163.752 535.68 160.104 535.68C156.404 535.68 153.381 532.686 153.381 528.989ZM131.492 528.989C131.492 525.292 134.489 522.298 138.189 522.298C141.889 522.298 144.886 525.292 144.886 528.989C144.886 532.686 141.889 535.68 138.189 535.68C134.489 535.68 131.492 532.686 131.492 528.989ZM109.55 528.989C109.55 525.292 112.547 522.298 116.248 522.298C119.948 522.298 122.945 525.292 122.945 528.989C122.945 532.686 119.948 535.68 116.248 535.68C112.547 535.68 109.55 532.686 109.55 528.989ZM87.6091 528.989C87.6091 525.292 90.6319 522.298 94.3062 522.298C98.0065 522.298 101.029 525.292 101.029 528.989C101.029 532.686 98.0065 535.68 94.3062 535.68C90.6579 535.68 87.6091 532.686 87.6091 528.989ZM65.7198 528.989C65.7198 525.292 68.7166 522.298 72.4169 522.298C76.0651 522.298 79.114 525.292 79.114 528.989C79.114 532.686 76.0912 535.68 72.4169 535.68C68.7166 535.68 65.7198 532.686 65.7198 528.989ZM43.7785 528.989C43.7785 525.292 46.7752 522.298 50.4755 522.298C54.1759 522.298 57.1726 525.292 57.1726 528.989C57.1726 532.686 54.1759 535.68 50.4755 535.68C46.7752 535.68 43.7785 532.686 43.7785 528.989ZM21.8371 528.989C21.8371 525.292 24.8599 522.298 28.5342 522.298C32.2345 522.298 35.2312 525.292 35.2312 528.989C35.2312 532.686 32.2345 535.68 28.5342 535.68C24.886 535.68 21.8371 532.686 21.8371 528.989Z" fill="white"/>
        </g>
        <path style="mix-blend-mode:multiply" d="M304.742 401.612C317.706 321.817 263.472 246.63 183.607 233.678C103.741 220.725 28.4884 274.912 15.5244 354.707C2.56046 434.502 56.7947 509.688 136.66 522.641C216.525 535.593 291.778 481.407 304.742 401.612Z" fill="url(#paint0_radial_34_302)"/>
    </g>
    <defs>
        <radialGradient id="paint0_radial_34_302" cx="0" cy="0" r="1" gradientUnits="userSpaceOnUse" gradientTransform="translate(160.134 378.158) scale(146.502 146.373)">
            <stop offset="0.53" stop-color="white" stop-opacity="0"/>
            <stop offset="1"/>
        </radialGradient>
        <clipPath id="clip0_34_302">
            <rect width="496" height="565" rx="32" fill="white"/>
        </clipPath>
    </defs>
</svg>
