<svg width="14" height="14" viewBox="0 0 14 14" fill="none" xmlns="http://www.w3.org/2000/svg">
<g id="icon" clip-path="url(#clip0_7_133)">
<g id="Group">
<path id="Vector" d="M10.316 4.4818C10.7401 4.4818 11.084 4.13796 11.084 3.7138C11.084 3.28965 10.7401 2.9458 10.316 2.9458C9.89182 2.9458 9.54797 3.28965 9.54797 3.7138C9.54797 4.13796 9.89182 4.4818 10.316 4.4818Z" fill="black"/>
<path id="Vector_2" d="M6.99993 10.2003C5.23513 10.2003 3.79993 8.76509 3.79993 7.00029C3.79993 5.23549 5.23513 3.80029 6.99993 3.80029C8.76473 3.80029 10.1999 5.23549 10.1999 7.00029C10.1999 8.76509 8.76473 10.2003 6.99993 10.2003ZM6.99993 5.40029C6.11753 5.40029 5.39993 6.11789 5.39993 7.00029C5.39993 7.88269 6.11753 8.60029 6.99993 8.60029C7.88233 8.60029 8.59993 7.88269 8.59993 7.00029C8.59993 6.11789 7.88233 5.40029 6.99993 5.40029Z" fill="black"/>
<path id="Vector_3" d="M10.2 13.4001H3.79998C2.15518 13.4001 0.599976 11.8449 0.599976 10.2001V3.8001C0.599976 2.1553 2.15518 0.600098 3.79998 0.600098H10.2C11.8448 0.600098 13.4 2.1553 13.4 3.8001V10.2001C13.4 11.8449 11.8448 13.4001 10.2 13.4001ZM3.79998 2.2001C3.05198 2.2001 2.19998 3.0521 2.19998 3.8001V10.2001C2.19998 10.9625 3.03758 11.8001 3.79998 11.8001H10.2C10.948 11.8001 11.8 10.9481 11.8 10.2001V3.8001C11.8 3.0521 10.948 2.2001 10.2 2.2001H3.79998Z" fill="black"/>
</g>
</g>
<defs>
<clipPath id="clip0_7_133">
<rect width="12.8" height="12.8" fill="white" transform="translate(0.599976 0.600098)"/>
</clipPath>
</defs>
</svg>
