<svg width="14" height="14" viewBox="0 0 14 14" fill="none" xmlns="http://www.w3.org/2000/svg">
<g id="icon" clip-path="url(#clip0_7_128)">
<g id="Group">
<path id="Vector" d="M13.4 3.00029C12.92 3.24029 12.44 3.32029 11.88 3.40029C12.44 3.08029 12.84 2.60029 13 1.96029C12.52 2.28029 11.96 2.44029 11.32 2.60029C10.84 2.12029 10.12 1.80029 9.39998 1.80029C8.03998 1.80029 6.83998 3.00029 6.83998 4.44029C6.83998 4.68029 6.83998 4.84029 6.91998 5.00029C4.75998 4.92029 2.75998 3.88029 1.47998 2.28029C1.23998 2.68029 1.15998 3.08029 1.15998 3.64029C1.15998 4.52029 1.63998 5.32029 2.35998 5.80029C1.95998 5.80029 1.55998 5.64029 1.15998 5.48029C1.15998 6.76029 2.03998 7.80029 3.23998 8.04029C2.99998 8.12029 2.75998 8.12029 2.51998 8.12029C2.35998 8.12029 2.19998 8.12029 2.03998 8.04029C2.35998 9.08029 3.31998 9.88029 4.51998 9.88029C3.63998 10.6003 2.51998 11.0003 1.23998 11.0003C0.999976 11.0003 0.839976 11.0003 0.599976 11.0003C1.79998 11.7203 3.15998 12.2003 4.59998 12.2003C9.39998 12.2003 12.04 8.20029 12.04 4.76029C12.04 4.68029 12.04 4.52029 12.04 4.44029C12.6 4.04029 13.08 3.56029 13.4 3.00029Z" fill="black"/>
</g>
</g>
<defs>
<clipPath id="clip0_7_128">
<rect width="12.8" height="12.8" fill="white" transform="translate(0.599976 0.600098)"/>
</clipPath>
</defs>
</svg>
