<svg width="14" height="14" viewBox="0 0 14 14" fill="none" xmlns="http://www.w3.org/2000/svg">
<g id="icon" clip-path="url(#clip0_7_140)">
<g id="Group">
<path id="Vector" d="M13.24 4.4402C13.08 3.4002 12.6 2.6802 11.48 2.5202C9.71998 2.2002 6.99998 2.2002 6.99998 2.2002C6.99998 2.2002 4.27998 2.2002 2.51998 2.5202C1.39998 2.6802 0.839976 3.4002 0.759976 4.4402C0.599976 5.4802 0.599976 7.0002 0.599976 7.0002C0.599976 7.0002 0.599976 8.5202 0.759976 9.5602C0.919976 10.6002 1.39998 11.3202 2.51998 11.4802C4.27998 11.8002 6.99998 11.8002 6.99998 11.8002C6.99998 11.8002 9.71998 11.8002 11.48 11.4802C12.6 11.2402 13.08 10.6002 13.24 9.5602C13.4 8.5202 13.4 7.0002 13.4 7.0002C13.4 7.0002 13.4 5.4802 13.24 4.4402ZM5.39998 9.4002V4.6002L9.39998 7.0002L5.39998 9.4002Z" fill="black"/>
</g>
</g>
<defs>
<clipPath id="clip0_7_140">
<rect width="12.8" height="12.8" fill="white" transform="translate(0.599976 0.600098)"/>
</clipPath>
</defs>
</svg>
